<svg xmlns="http://www.w3.org/2000/svg" xmlns:xlink="http://www.w3.org/1999/xlink" viewBox="0 0 141.88 202.17"><defs><style>.cls-1{fill:#0052cc;}.cls-2{fill:#dfe1e5;}.cls-3{fill:#ff991f;}.cls-4{fill:#0065ff;}.cls-5{fill:none;stroke:#0052cc;stroke-linecap:round;stroke-miterlimit:10;stroke-width:2px;}.cls-6{fill:url(#New_Gradient_Swatch_6);}.cls-7{fill:#ffab00;}.cls-8{fill:url(#linear-gradient);}.cls-9{fill:#2681ff;}</style><linearGradient id="New_Gradient_Swatch_6" x1="-9.475" y1="163.725" x2="148.065" y2="6.185" gradientUnits="userSpaceOnUse"><stop offset="0" stop-color="#ffab00"/><stop offset="1" stop-color="#ffe380"/></linearGradient><linearGradient id="linear-gradient" x1="70.411" y1="1595.087" x2="49.705" y2="1559.224" gradientTransform="matrix(1, 0, 0, -1, 0, 1679.17)" gradientUnits="userSpaceOnUse"><stop offset="0" stop-color="#0052cc"/><stop offset="0.92" stop-color="#2684ff"/></linearGradient></defs><title>Atlassian Book_1</title><g id="Layer_2" data-name="Layer 2"><g id="Objects"><path id="_Path_" data-name="&lt;Path&gt;" class="cls-1" d="M141.88,157.07v32.27H16.554A16.411,16.411,0,0,1,0,173.387,16.115,16.115,0,0,1,16.13,157.07Z"/><path id="_Path_2" data-name="&lt;Path&gt;" class="cls-2" d="M132.88,148.323v32.27H16.13a16.135,16.135,0,1,1,0-32.27Z"/><path class="cls-3" d="M16.13,160.07H141.88v-3H16.13a16.135,16.135,0,0,0,0,32.27H141.88v-3H16.13a13.135,13.135,0,1,1,0-26.271Z"/><polygon id="_Path_3" data-name="&lt;Path&gt;" class="cls-4" points="118.297 202.17 107.185 194.721 96.073 202.17 96.073 169.432 118.297 169.432 118.297 202.17"/><path class="cls-1" d="M118.3,169.432H96.073v27.294c2.7-8.264,6.586-11.866,9.838-13.586,4.088-2.162,7.885-1.758,10.928-5.174a10.428,10.428,0,0,0,1.458-2.125Z"/><line class="cls-5" x1="134.699" y1="169.432" x2="14.556" y2="169.432"/><path id="_Path_4" data-name="&lt;Path&gt;" class="cls-6" d="M141.88,0V157.07H16.13A16.115,16.115,0,0,0,0,173.2V16.3A16.3,16.3,0,0,1,16.3,0Z"/><path class="cls-7" d="M12.2.541A16.292,16.292,0,0,0,0,16.3V173.2a16.064,16.064,0,0,1,12.2-15.628Z"/><g id="Layer_2-2" data-name="Layer 2"><g id="Blue"><path class="cls-8" d="M59.657,78.027a2.269,2.269,0,0,0-3.872.439L36.168,117.679a2.344,2.344,0,0,0,2.1,3.393H65.583a2.261,2.261,0,0,0,2.1-1.317C73.572,107.6,70,89.08,59.657,78.027Z"/><path class="cls-9" d="M74.05,42.344C63.076,59.727,63.8,78.98,71.03,93.43L84.2,119.768a2.344,2.344,0,0,0,2.1,1.317h27.317a2.344,2.344,0,0,0,2.1-3.393s-36.75-73.53-37.654-75.361A2.228,2.228,0,0,0,74.05,42.344Z"/></g></g></g></g></svg>