<?xml version="1.0" encoding="iso-8859-1"?>
<!-- Generator: Adobe Illustrator 19.0.0, SVG Export Plug-In . SVG Version: 6.00 Build 0)  -->
<svg version="1.1" id="Capa_1" xmlns="http://www.w3.org/2000/svg" xmlns:xlink="http://www.w3.org/1999/xlink" x="0px" y="0px"
	 viewBox="0 0 512.002 512.002" style="enable-background:new 0 0 512.002 512.002;" xml:space="preserve">
<path style="fill:#B0DBFF;" d="M457.351,104.907c-10.825,4.126-23.099,10.163-25.913,27.509
	c-6.51,40.003-87.734-84.689-57.096-99.514c0,0,17.545,2.467,38.26,9.575c19.833,6.783,42.565,17.828,55.563,34.995
	C483.232,97.358,471.515,99.5,457.351,104.907z"/>
<g>
	<path style="fill:#55B7F9;" d="M457.351,104.907c-10.825,4.126-23.099,10.163-25.913,27.509
		c-6.51,40.003-87.734-84.689-57.096-99.514c0,0,17.545,2.467,38.26,9.575c15.246,14.353,28.401,31.562,39.121,51.343
		C453.687,97.431,455.555,101.128,457.351,104.907z"/>
	<path style="fill:#55B7F9;" d="M345.09,155.798l-27.141,25.923l-10.1,9.649c-10.489,10.016-27.939,2.467-27.698-12.032
		c0.179-10.468,1.26-20.4,2.509-28.569c1.879-12.358,4.126-20.673,4.126-20.673L345.09,155.798z"/>
</g>
<path style="fill:#0087FF;" d="M345.09,155.798l-27.141,25.923c-9.155-10.447-20.925-20.778-35.289-30.952
	c1.879-12.358,4.126-20.673,4.126-20.673L345.09,155.798z"/>
<path style="fill:#B0DBFF;" d="M468.165,228.266c0,68.31-62.189,143.161-140.62,169.746c-18.983,6.436-38.932,10.048-59.176,10.048
	v-45.18c0,0,28.474-3.611,53.264-27.32c19.119-18.28,36.055-48.507,36.055-98.244c0-93.655-147.581-146.982-205.223-164.884
	c-11.014-3.422-16.883-15.393-12.861-26.207c3.003-8.085,10.667-13.113,18.846-13.113c2.194,0,4.43,0.357,6.615,1.123l25.451,8.347
	c0,0,51.721-56.004,146.216-26.606S468.165,143.42,468.165,228.266z"/>
<g>
	<path style="fill:#55B7F9;" d="M328.02,167.821c-46.145-51.326-134.105-82.519-175.55-95.391
		c-11.021-3.42-16.882-15.392-12.861-26.203c0.81-2.17,1.95-4.13,3.35-5.821c0.66,7.901,5.981,15.032,14.072,17.552
		C202.956,72.221,293.226,106.934,328.02,167.821z"/>
	<path style="fill:#55B7F9;" d="M327.546,398.011c-18.983,6.436-38.932,10.048-59.176,10.048V362.88c0,0,28.474-3.611,53.264-27.32
		c0.42,0.483,0.819,0.997,1.218,1.512C333.834,351.53,332.522,372.266,327.546,398.011z"/>
	<path style="fill:#55B7F9;" d="M468.165,228.266c0,84.846-95.955,179.793-199.795,179.793v-11.35
		c99.504-6.352,188.791-97.593,188.791-179.437c0-42.649-4.631-78.022-14.805-107.231
		C460.238,146.863,468.165,188.977,468.165,228.266z"/>
</g>
<path style="fill:#B0DBFF;" d="M274.072,321.354v72.237h-22.406c-5.208,0-10.195-0.913-14.826-2.593
	c-16.726-6.059-28.674-22.101-28.674-40.917v-68.237c0-3.643,1.48-6.94,3.863-9.334c2.394-2.383,5.691-3.863,9.334-3.863
	C250.469,268.646,274.072,292.239,274.072,321.354z"/>
<g>
	<path style="fill:#55B7F9;" d="M274.072,323.749v69.843h-22.406c-5.208,0-10.195-0.913-14.826-2.593
		c0.409-13.061,1.459-26.91,5.975-38.732C248.663,336.978,259.341,327.297,274.072,323.749z"/>
	<path style="fill:#55B7F9;" d="M251.667,353.936h22.404v39.654h-22.404c-17.486,0-32.561-10.321-39.477-25.195
		C222.854,359.375,236.639,353.936,251.667,353.936z"/>
	<path style="fill:#55B7F9;" d="M274.072,371.679v72.237c0,29.104-23.603,52.697-52.708,52.697c-3.643,0-6.94-1.48-9.334-3.863
		c-2.383-2.394-3.863-5.691-3.863-9.334v-68.237c0-7.381,1.837-14.332,5.082-20.421c5.208-9.775,14.038-17.335,24.705-20.873
		c4.315-1.428,8.925-2.205,13.713-2.205H274.072z"/>
</g>
<path style="fill:#0087FF;" d="M274.072,371.679v72.237c0,29.104-23.603,52.697-52.708,52.697c-3.643,0-6.94-1.48-9.334-3.863
	c-2.383-2.394-3.863-5.691-3.863-9.334v-68.237c0-7.381,1.837-14.332,5.082-20.421c5.744,16.369,12.683,31.856,19.938,32.727
	c0.241,0.031,0.462,0.052,0.661,0.063c2.278-4.694,2.593-19.361,2.782-28.349c0.179-8.116,0.368-16.799,1.323-25.314
	c4.315-1.428,8.925-2.205,13.713-2.205L274.072,371.679L274.072,371.679z"/>
<path style="fill:#55B7F9;" d="M370.473,94.583c0,0,21.774,14.307,41.32,35.553c10.863,11.809,2.157,30.856-13.878,30.272
	L364,159.173c-10.823-0.394-17.769-11.662-13.259-21.509L370.473,94.583z"/>
<path style="fill:#B0DBFF;" d="M366.626,84.516c0,0,19.864,13.051,37.649,32.42c9.806,10.679,1.77,27.91-12.718,27.382
	l-51.464-1.875L366.626,84.516z"/>
<path style="fill:#7DF6FF;" d="M272.384,504.499c11.792,0,21.707-8.904,22.907-20.635c7.74-75.722,43.911-143.284-4.596-145.827
	c-67.117-3.518-14.705,110.465-59.393,105.086c-44.688-5.379-37.89-145.814-91.045-127.044
	c-53.155,18.77,37.517,130.785,18.774,149.529c-18.743,18.743-51.015-60.504-83.908-41.605
	c-23.505,13.505,1.451,51.307,17.614,71.788c4.353,5.517,11.012,8.708,18.039,8.708h161.608V504.499z"/>
<g>
	<path style="fill:#2CD7FF;" d="M295.291,483.865c-1.197,11.728-11.119,20.631-22.91,20.631h-17.009
		c11.791,0,21.702-8.904,22.9-20.631c7.423-72.52,40.917-137.564,1.113-145.155c3.328-0.651,7.087-0.892,11.308-0.672
		C339.2,340.579,303.029,408.143,295.291,483.865z"/>
	<path style="fill:#2CD7FF;" d="M225.049,441.364c-2.751,1.638-6.269,2.31-10.762,1.764c-39.079-4.715-38.785-112.723-73.654-127.17
		C190.768,298.875,187.23,424.292,225.049,441.364z"/>
	<path style="fill:#2CD7FF;" d="M142.901,464.546c-0.262,0.378-0.556,0.735-0.882,1.06c-15.025,15.025-38.753-32.937-64.519-42.796
		C101.47,412.395,124.937,451.674,142.901,464.546z"/>
</g>
<path d="M474.144,72.943c-25.973-34.295-85.971-45.409-97.018-47.194c-11.806-7.037-24.536-12.694-38.165-16.934
	c-50.965-15.856-89.94-7.382-113.663,2.52c-18.684,7.798-31.052,17.605-36.73,22.719l-21.106-6.927
	c-14.065-4.852-29.709,2.531-34.893,16.49c-2.63,7.082-2.228,15.03,1.105,21.808c3.377,6.869,9.26,11.9,16.565,14.17
	c27.124,8.427,52.494,17.982,75.405,28.4c2.98,1.356,6.502,0.62,8.689-1.82l0.325-0.371c2.855-2.934,2.832-7.629-0.072-10.534
	c-1.522-1.522-3.515-2.265-5.532-2.193c-22.74-10.187-47.74-19.535-74.365-27.807c-3.329-1.034-6.013-3.329-7.553-6.463
	c-1.545-3.143-1.725-6.682-0.506-9.965c2.372-6.387,9.536-9.757,15.969-7.521c0.042,0.015,0.084,0.029,0.126,0.042l25.447,8.351
	c2.789,0.915,5.858,0.119,7.85-2.038c0.485-0.525,49.536-52.208,138.482-24.536c12.979,4.038,24.609,9.309,35.054,15.504
	c0.608,0.515,1.302,0.935,2.063,1.237c31.232,19.177,51.496,46.775,64.641,74.714c0.165,0.469,0.377,0.928,0.641,1.367
	c17.893,38.722,22.245,77.835,23.279,95.811c0.229,3.989,3.535,7.07,7.481,7.07c0.145,0,0.291-0.004,0.438-0.012
	c4.135-0.238,7.296-3.783,7.058-7.919c-1.458-25.363-6.682-60.574-22.233-95.918c3.291-1.683,6.833-2.996,10.302-4.273
	c8.095-2.98,16.465-6.063,18.882-14.321C484.531,88.126,479.124,79.517,474.144,72.943z M458.044,96.641
	c-3.517,1.295-7.56,2.79-11.598,4.823c-2.011-3.871-4.151-7.73-6.441-11.561c-9.437-15.789-20.372-29.56-32.737-41.289
	c19.439,6.331,42.392,16.848,54.917,33.387c5.223,6.894,5.516,9.645,5.52,10.144C466.685,93.46,461.499,95.369,458.044,96.641z"/>
<path d="M468.175,235.145c-4.106-0.509-7.854,2.422-8.355,6.535c-7.89,64.508-68.138,128.747-139.625,150.829
	c3.364-18.618,4.354-33.998-0.738-45.098c22.054-17.68,45.726-50.527,45.726-110.09c0-47.798-34.774-90.9-103.355-128.106
	c-3.643-1.977-8.193-0.625-10.17,3.016c-1.975,3.641-0.625,8.195,3.017,10.17c8.211,4.454,15.886,8.982,23.046,13.579
	c-1.971,9.305-4.773,25.469-5.066,43.241c-0.162,9.759,5.307,18.257,14.27,22.179c3.18,1.391,6.483,2.071,9.738,2.071
	c5.968,0,11.775-2.286,16.366-6.671l16.409-15.677c13.794,17.968,20.745,36.736,20.745,56.198c0,54.012-21.025,83.209-40.457,98.663
	c-4.916-3.213-11.145-5.041-18.637-5.433c-3.348-0.175-6.517-0.081-9.514,0.263v-9.464c0-33.198-27.009-60.207-60.207-60.207
	c-5.532,0-10.732,2.155-14.645,6.067c-3.913,3.912-6.068,9.113-6.068,14.646v68.228c0,7.501,1.592,14.727,4.733,21.481
	c1.873,4.018,4.225,7.728,7.025,11.091c-3.151,3.796-5.765,8.054-7.719,12.657c-2.11-6.21-4.12-12.677-6.102-19.062
	c-9.111-29.361-17.717-57.094-36.146-66.347c-7.459-3.745-15.766-4.045-24.688-0.896c-9.122,3.221-15.507,8.945-18.978,17.014
	c-9.48,22.032,6.007,56.826,19.67,87.525c5.374,12.074,10.449,23.48,13.323,32.594c3.695,11.719,1.959,14.149,1.949,14.163
	c-0.696,0.697-0.992,0.709-1.188,0.694c-4.375-0.054-14.085-10.255-21.173-17.704c-7.779-8.174-16.597-17.439-25.946-23.311
	c-12.158-7.637-23.609-8.472-34.036-2.483c-6.936,3.987-11.373,10.098-12.834,17.67c-3.023,15.681,6.497,37.639,28.299,65.27
	c5.805,7.348,14.526,11.562,23.929,11.562h161.608c15.72,0,28.777-11.766,30.381-27.438c0.056-0.594,0.121-1.188,0.187-1.773
	c0.459-4.117-2.506-7.827-6.623-8.287c-4.122-0.458-7.827,2.506-8.287,6.623c-0.075,0.675-0.15,1.361-0.207,1.979
	c-0.811,7.921-7.453,13.895-15.451,13.895H110.775c-4.784,0-9.215-2.135-12.153-5.857c-18.176-23.035-27.413-42.401-25.343-53.134
	c0.635-3.296,2.408-5.682,5.578-7.503c11.785-6.768,24.691,5.319,41.641,23.128c11.353,11.928,21.156,22.23,31.856,22.362
	c4.48,0.053,8.601-1.704,11.982-5.087c11.12-11.12,1.349-33.076-12.176-63.464c-11.798-26.506-26.48-59.494-19.596-75.496
	c1.799-4.181,5.038-6.977,10.192-8.797c5.067-1.79,9.186-1.738,12.961,0.158c12.724,6.388,20.769,32.314,28.549,57.385
	c5.07,16.338,10.312,33.23,17.287,46.054c0.012,0.023,0.025,0.046,0.037,0.068c7.941,14.603,17.365,22.372,28.813,23.752
	c7.461,0.897,13.657-0.744,18.419-4.878c10.26-8.904,10.647-26.924,11.059-46.002c0.196-9.104,0.398-18.517,1.649-26.907
	c2.088-13.977,6.503-21.974,14.663-25.37c0.368-0.108,0.722-0.247,1.065-0.408c3.619-1.282,7.928-1.742,13.045-1.474
	c6.85,0.358,11.441,2.195,14.041,5.615c7.775,10.232,1.697,37.557-4.737,66.486c-2.255,10.14-4.587,20.625-6.689,31.67
	c-0.774,4.069,1.896,7.997,5.967,8.771c4.063,0.775,7.997-1.895,8.772-5.966c2.058-10.817,4.365-21.188,6.596-31.216
	c0.898-4.039,1.773-7.977,2.603-11.815c80.133-21.363,149.009-93.236,157.856-165.572
	C475.213,239.388,472.288,235.648,468.175,235.145z M302.666,185.95c-3.97,3.792-8.449,2.262-9.728,1.703
	c-1.263-0.552-5.374-2.774-5.284-8.187c0.218-13.203,1.926-25.473,3.542-34.31c11.023,7.991,20.519,16.18,28.465,24.555
	L302.666,185.95z M238.989,434.362c-0.926,0.803-2.642,1.813-6.793,1.313c-5.93-0.714-11.346-5.441-16.529-14.427v-6.07
	c0-17.815,13.008-32.64,30.023-35.498c-0.514,6.527-0.667,13.179-0.807,19.685C244.575,413.64,244.226,429.816,238.989,434.362z
	 M258.433,341.999c-4.976,5.448-8.46,12.795-10.585,22.333c-8.911,0.664-17.191,3.62-24.249,8.291
	c-1.822-2.259-3.37-4.728-4.612-7.392c-2.21-4.752-3.331-9.849-3.331-15.149v-68.228c0-1.524,0.594-2.958,1.674-4.037
	c1.079-1.079,2.512-1.673,4.036-1.673c24.927,0,45.205,20.279,45.205,45.205v14.142
	C263.534,337.218,260.817,339.387,258.433,341.999z"/>
<path d="M102.329,316.623c4.143,0,7.501-3.358,7.501-7.501v-0.88c0-4.142-3.357-7.501-7.501-7.501c-4.143,0-7.501,3.358-7.501,7.501
	v0.88C94.829,313.264,98.187,316.623,102.329,316.623z"/>
<path d="M41.507,436.844c-4.143,0-7.501,3.358-7.501,7.501v0.88c0,4.142,3.357,7.501,7.501,7.501s7.501-3.358,7.501-7.501v-0.88
	C49.008,440.203,45.649,436.844,41.507,436.844z"/>
<path d="M412.994,419.345c-4.143,0-7.501,3.358-7.501,7.501v0.88c0,4.142,3.357,7.501,7.501,7.501s7.501-3.358,7.501-7.501v-0.88
	C420.495,422.704,417.138,419.345,412.994,419.345z"/>
<path d="M102.329,277.526c4.143,0,7.501-3.358,7.501-7.501v-0.88c0-4.142-3.357-7.501-7.501-7.501c-4.143,0-7.501,3.358-7.501,7.501
	v0.88C94.829,274.168,98.187,277.526,102.329,277.526z"/>
<path d="M263.314,44.221v-0.88c0-4.142-3.357-7.501-7.501-7.501c-4.143,0-7.501,3.358-7.501,7.501v0.88
	c0,4.142,3.357,7.501,7.501,7.501C259.957,51.722,263.314,48.364,263.314,44.221z"/>
<path d="M391.831,136.822l-51.465-1.875c-4.161-0.147-7.619,3.082-7.77,7.223c-0.15,4.139,3.083,7.618,7.223,7.769l51.465,1.875
	c0.311,0.011,0.619,0.017,0.928,0.017c9.423,0,17.662-5.266,21.648-13.909c4.098-8.883,2.542-18.869-4.06-26.059
	c-18.205-19.825-38.213-33.061-39.056-33.615c-3.462-2.276-8.109-1.311-10.384,2.148s-1.315,8.11,2.144,10.387
	c0.191,0.126,19.348,12.822,36.246,31.225c3.662,3.988,2.064,8.378,1.487,9.628C399.654,132.904,397.3,137.023,391.831,136.822z"/>
<path d="M96.981,397.42c1.469,1.494,3.408,2.242,5.35,2.242c1.897,0,3.795-0.715,5.257-2.149c2.955-2.902,2.997-7.652,0.095-10.607
	c-1.327-1.352-32.928-33.242-68.556-44.876c-3.941-1.286-8.174,0.864-9.459,4.802s0.864,8.173,4.803,9.459
	C66.567,366.772,96.681,397.115,96.981,397.42z"/>
<path d="M413.138,386.502c-65.171,18.085-85.9,81.572-86.75,84.265c-1.245,3.945,0.941,8.149,4.885,9.401
	c0.754,0.239,1.518,0.353,2.269,0.353c3.178,0,6.131-2.038,7.149-5.226c0.186-0.583,19.28-58.472,76.46-74.339
	c3.991-1.108,6.33-5.242,5.222-9.233C421.264,387.732,417.135,385.394,413.138,386.502z"/>
<g>
</g>
<g>
</g>
<g>
</g>
<g>
</g>
<g>
</g>
<g>
</g>
<g>
</g>
<g>
</g>
<g>
</g>
<g>
</g>
<g>
</g>
<g>
</g>
<g>
</g>
<g>
</g>
<g>
</g>
</svg>
