<?xml version="1.0" encoding="iso-8859-1"?>
<!-- Generator: Adobe Illustrator 19.0.0, SVG Export Plug-In . SVG Version: 6.00 Build 0)  -->
<svg version="1.1" id="Capa_1" xmlns="http://www.w3.org/2000/svg" xmlns:xlink="http://www.w3.org/1999/xlink" x="0px" y="0px"
	 viewBox="0 0 512.002 512.002" style="enable-background:new 0 0 512.002 512.002;" xml:space="preserve">
<g>
	<g>
		<path d="M474.144,72.943c-25.973-34.295-85.971-45.409-97.018-47.194c-11.806-7.037-24.536-12.694-38.165-16.934
			c-50.965-15.856-89.94-7.382-113.663,2.52c-18.684,7.798-31.052,17.605-36.73,22.719l-21.106-6.927
			c-14.065-4.852-29.709,2.531-34.893,16.49c-2.63,7.082-2.228,15.03,1.105,21.808c3.377,6.869,9.26,11.9,16.565,14.17
			c27.124,8.427,52.494,17.982,75.405,28.4c2.98,1.356,6.502,0.62,8.689-1.82l0.325-0.371c2.855-2.934,2.832-7.629-0.072-10.534
			c-1.522-1.522-3.515-2.265-5.532-2.193c-22.74-10.187-47.74-19.535-74.365-27.807c-3.329-1.034-6.013-3.329-7.553-6.463
			c-1.545-3.143-1.725-6.682-0.506-9.965c2.372-6.387,9.536-9.757,15.969-7.521c0.042,0.015,0.084,0.029,0.126,0.042l25.447,8.351
			c2.789,0.915,5.858,0.119,7.85-2.038c0.485-0.525,49.536-52.208,138.482-24.536c12.979,4.038,24.609,9.309,35.054,15.504
			c0.608,0.515,1.302,0.935,2.063,1.237c31.232,19.177,51.496,46.775,64.641,74.714c0.165,0.469,0.377,0.928,0.641,1.367
			c17.893,38.722,22.245,77.835,23.279,95.811c0.229,3.989,3.535,7.07,7.481,7.07c0.145,0,0.291-0.004,0.438-0.012
			c4.135-0.238,7.296-3.783,7.058-7.919c-1.458-25.363-6.682-60.574-22.233-95.918c3.291-1.683,6.833-2.996,10.302-4.273
			c8.095-2.98,16.465-6.063,18.882-14.321C484.531,88.126,479.124,79.517,474.144,72.943z M458.044,96.641
			c-3.517,1.295-7.56,2.79-11.598,4.823c-2.011-3.871-4.151-7.73-6.441-11.561c-9.437-15.789-20.372-29.56-32.737-41.289
			c19.439,6.331,42.392,16.848,54.917,33.387c5.223,6.894,5.516,9.645,5.52,10.144C466.685,93.46,461.499,95.369,458.044,96.641z"/>
	</g>
</g>
<g>
	<g>
		<path d="M468.175,235.145c-4.106-0.509-7.854,2.422-8.355,6.535c-7.89,64.508-68.138,128.747-139.625,150.829
			c3.364-18.618,4.354-33.998-0.738-45.098c22.054-17.68,45.726-50.527,45.726-110.09c0-47.798-34.774-90.9-103.356-128.106
			c-3.643-1.977-8.193-0.625-10.17,3.016c-1.975,3.641-0.625,8.195,3.017,10.17c8.211,4.455,15.886,8.982,23.046,13.578
			c-1.971,9.305-4.773,25.469-5.066,43.241c-0.162,9.759,5.307,18.257,14.27,22.179c3.18,1.391,6.483,2.071,9.738,2.071
			c5.968,0,11.775-2.286,16.366-6.671l16.409-15.677c13.794,17.968,20.745,36.736,20.745,56.198
			c0,54.012-21.025,83.209-40.456,98.663c-4.916-3.213-11.145-5.041-18.637-5.433c-3.348-0.175-6.517-0.081-9.514,0.263v-9.464
			c0-33.198-27.009-60.207-60.207-60.207c-5.532,0-10.732,2.155-14.645,6.067c-3.913,3.912-6.068,9.113-6.068,14.646v68.228
			c0,7.501,1.592,14.727,4.732,21.481c1.873,4.018,4.225,7.728,7.025,11.091c-3.151,3.796-5.765,8.054-7.719,12.657
			c-2.11-6.21-4.12-12.677-6.102-19.062c-9.111-29.361-17.717-57.094-36.146-66.347c-7.459-3.745-15.766-4.045-24.688-0.896
			c-9.122,3.221-15.507,8.945-18.978,17.014c-9.48,22.032,6.007,56.826,19.67,87.525c5.374,12.074,10.449,23.48,13.323,32.594
			c3.695,11.719,1.959,14.149,1.949,14.163c-0.696,0.697-0.992,0.709-1.188,0.694c-4.375-0.054-14.085-10.255-21.173-17.704
			c-7.779-8.174-16.597-17.439-25.946-23.311c-12.158-7.637-23.609-8.472-34.036-2.483c-6.936,3.987-11.373,10.098-12.834,17.67
			c-3.023,15.681,6.497,37.639,28.299,65.27c5.805,7.348,14.526,11.562,23.929,11.562h161.608c15.72,0,28.777-11.766,30.381-27.438
			c0.056-0.594,0.121-1.188,0.187-1.773c0.459-4.117-2.506-7.827-6.623-8.287c-4.122-0.458-7.827,2.506-8.287,6.623
			c-0.075,0.675-0.15,1.361-0.207,1.979c-0.811,7.921-7.453,13.895-15.451,13.895H110.775c-4.784,0-9.215-2.135-12.153-5.857
			c-18.176-23.035-27.413-42.401-25.343-53.134c0.635-3.296,2.408-5.682,5.578-7.503c11.785-6.768,24.691,5.319,41.641,23.128
			c11.353,11.928,21.156,22.23,31.856,22.362c4.481,0.053,8.601-1.704,11.982-5.087c11.12-11.12,1.349-33.076-12.176-63.464
			c-11.798-26.506-26.48-59.494-19.596-75.496c1.799-4.181,5.038-6.977,10.192-8.797c5.067-1.79,9.186-1.738,12.961,0.158
			c12.724,6.388,20.769,32.314,28.549,57.385c5.07,16.338,10.312,33.23,17.287,46.054c0.012,0.023,0.025,0.046,0.037,0.068
			c7.941,14.603,17.365,22.372,28.813,23.752c7.461,0.897,13.656-0.744,18.419-4.878c10.26-8.904,10.647-26.924,11.059-46.002
			c0.196-9.104,0.398-18.517,1.649-26.907c2.088-13.977,6.503-21.974,14.663-25.37c0.368-0.108,0.722-0.247,1.065-0.408
			c3.619-1.282,7.928-1.742,13.045-1.474c6.85,0.358,11.441,2.195,14.041,5.615c7.775,10.232,1.697,37.557-4.737,66.486
			c-2.255,10.14-4.588,20.625-6.689,31.67c-0.774,4.069,1.896,7.997,5.967,8.771c4.063,0.775,7.997-1.895,8.772-5.966
			c2.058-10.817,4.365-21.188,6.596-31.216c0.898-4.039,1.773-7.977,2.603-11.815c80.133-21.363,149.009-93.236,157.856-165.572
			C475.213,239.388,472.288,235.648,468.175,235.145z M302.666,185.95c-3.97,3.792-8.449,2.262-9.728,1.703
			c-1.263-0.552-5.374-2.774-5.284-8.187c0.218-13.203,1.926-25.473,3.542-34.31c11.023,7.991,20.519,16.18,28.465,24.555
			L302.666,185.95z M244.883,399.366c-0.308,14.274-0.657,30.45-5.895,34.996c-0.926,0.803-2.642,1.813-6.793,1.313
			c-5.93-0.714-11.346-5.441-16.529-14.427v-6.07c0-17.815,13.008-32.64,30.023-35.498
			C245.176,386.208,245.023,392.86,244.883,399.366z M266.572,335.491c-3.037,1.727-5.755,3.896-8.139,6.508
			c-4.976,5.448-8.46,12.795-10.585,22.333c-8.911,0.664-17.191,3.62-24.249,8.291c-1.822-2.259-3.37-4.727-4.612-7.392
			c-2.21-4.752-3.331-9.849-3.331-15.149v-68.228c0-1.524,0.594-2.958,1.674-4.037c1.079-1.079,2.512-1.673,4.036-1.673
			c24.927,0,45.205,20.279,45.205,45.205V335.491z"/>
	</g>
</g>
<g>
	<g>
		<path d="M102.329,300.741c-4.143,0-7.501,3.358-7.501,7.501v0.88c0,4.142,3.358,7.501,7.501,7.501
			c4.143,0,7.501-3.358,7.501-7.501v-0.88C109.83,304.099,106.473,300.741,102.329,300.741z"/>
	</g>
</g>
<g>
	<g>
		<path d="M41.507,436.844c-4.143,0-7.501,3.358-7.501,7.501v0.88c0,4.142,3.357,7.501,7.501,7.501c4.143,0,7.501-3.358,7.501-7.501
			v-0.88C49.008,440.203,45.649,436.844,41.507,436.844z"/>
	</g>
</g>
<g>
	<g>
		<path d="M412.994,419.345c-4.143,0-7.501,3.358-7.501,7.501v0.88c0,4.142,3.357,7.501,7.501,7.501
			c4.143,0,7.501-3.358,7.501-7.501v-0.88C420.495,422.704,417.138,419.345,412.994,419.345z"/>
	</g>
</g>
<g>
	<g>
		<path d="M102.329,261.645c-4.143,0-7.501,3.358-7.501,7.501v0.88c0,4.142,3.358,7.501,7.501,7.501
			c4.143,0,7.501-3.358,7.501-7.501v-0.88C109.83,265.003,106.473,261.645,102.329,261.645z"/>
	</g>
</g>
<g>
	<g>
		<path d="M255.814,35.841c-4.143,0-7.501,3.358-7.501,7.501v0.88c0,4.142,3.357,7.501,7.501,7.501c4.143,0,7.501-3.358,7.501-7.501
			v-0.88C263.314,39.199,259.957,35.841,255.814,35.841z"/>
	</g>
</g>
<g>
	<g>
		<path d="M409.8,111.863c-18.205-19.825-38.213-33.061-39.056-33.615c-3.462-2.276-8.109-1.311-10.384,2.148
			c-2.275,3.459-1.315,8.11,2.144,10.387c0.191,0.126,19.348,12.822,36.246,31.225c3.662,3.988,2.064,8.378,1.487,9.628
			c-0.583,1.267-2.936,5.386-8.406,5.185l-51.465-1.875c-4.161-0.147-7.619,3.082-7.77,7.223c-0.15,4.139,3.083,7.618,7.223,7.769
			l51.465,1.875c0.311,0.011,0.619,0.017,0.928,0.017c9.423,0,17.662-5.266,21.648-13.909
			C417.959,129.039,416.402,119.053,409.8,111.863z"/>
	</g>
</g>
<g>
	<g>
		<path d="M107.682,386.906c-1.327-1.352-32.928-33.242-68.556-44.876c-3.941-1.286-8.174,0.864-9.459,4.802
			c-1.285,3.937,0.864,8.173,4.803,9.459c32.098,10.482,62.211,40.825,62.511,41.13c1.469,1.494,3.408,2.242,5.35,2.242
			c1.897,0,3.795-0.715,5.257-2.149C110.542,394.611,110.584,389.861,107.682,386.906z"/>
	</g>
</g>
<g>
	<g>
		<path d="M422.372,391.723c-1.108-3.991-5.238-6.329-9.234-5.222c-65.171,18.085-85.9,81.572-86.75,84.265
			c-1.245,3.945,0.941,8.149,4.885,9.401c0.754,0.239,1.518,0.353,2.269,0.353c3.178,0,6.131-2.038,7.149-5.226
			c0.186-0.583,19.28-58.471,76.459-74.339C421.142,399.848,423.48,395.715,422.372,391.723z"/>
	</g>
</g>
<g>
</g>
<g>
</g>
<g>
</g>
<g>
</g>
<g>
</g>
<g>
</g>
<g>
</g>
<g>
</g>
<g>
</g>
<g>
</g>
<g>
</g>
<g>
</g>
<g>
</g>
<g>
</g>
<g>
</g>
</svg>
